<svg width="143" height="44" viewBox="0 0 143 44" fill="none" xmlns="http://www.w3.org/2000/svg">
<g clip-path="url(#clip0_61_396)">
<mask id="mask0_61_396" style="mask-type:luminance" maskUnits="userSpaceOnUse" x="0" y="6" width="143" height="32">
<path d="M142.257 6.875H0V37.125H142.257V6.875Z" fill="white"/>
</mask>
<g mask="url(#mask0_61_396)">
<path d="M25.1378 20.885L34.9777 9.19986C36.0148 7.96825 38.0286 8.7029 38.0286 10.3148V33.6851C38.0286 35.297 36.0148 36.0316 34.9777 34.8L25.1378 23.1149C24.5976 22.471 24.5976 21.5332 25.1378 20.8893V20.885Z" fill="#2A13AE"/>
<path opacity="0.2" d="M20.0946 32.8037H17.9339C17.3372 32.8037 16.8535 33.2874 16.8535 33.8841V36.0448C16.8535 36.6414 17.3372 37.1251 17.9339 37.1251H20.0946C20.6912 37.1251 21.175 36.6414 21.175 36.0448V33.8841C21.175 33.2874 20.6912 32.8037 20.0946 32.8037Z" fill="#BFBBEA"/>
<path opacity="0.4" d="M20.0946 24.1606H17.9339C17.3372 24.1606 16.8535 24.6444 16.8535 25.241V27.4017C16.8535 27.9984 17.3372 28.4821 17.9339 28.4821H20.0946C20.6912 28.4821 21.175 27.9984 21.175 27.4017V25.241C21.175 24.6444 20.6912 24.1606 20.0946 24.1606Z" fill="#BFBBEA"/>
<path opacity="0.6" d="M20.0946 15.5178H17.9339C17.3372 15.5178 16.8535 16.0015 16.8535 16.5982V18.7589C16.8535 19.3556 17.3372 19.8393 17.9339 19.8393H20.0946C20.6912 19.8393 21.175 19.3556 21.175 18.7589V16.5982C21.175 16.0015 20.6912 15.5178 20.0946 15.5178Z" fill="#BFBBEA"/>
<path d="M20.0946 6.875H17.9339C17.3372 6.875 16.8535 7.35869 16.8535 7.95536V10.1161C16.8535 10.7127 17.3372 11.1964 17.9339 11.1964H20.0946C20.6912 11.1964 21.175 10.7127 21.175 10.1161V7.95536C21.175 7.35869 20.6912 6.875 20.0946 6.875Z" fill="#BFBBEA"/>
<path d="M12.8908 20.885L3.05093 9.19986C2.01379 7.96825 0 8.7029 0 10.3148V33.6851C0 35.297 2.01379 36.0316 3.05093 34.8L12.8908 23.1149C13.431 22.471 13.431 21.5332 12.8908 20.8893V20.885ZM8.3533 22.2852L4.36465 27.0214C4.09671 27.3412 3.57382 27.1511 3.57382 26.7319V17.255C3.57382 16.8402 4.09239 16.65 4.36465 16.9655L8.3533 21.7018C8.4916 21.8703 8.4916 22.1123 8.3533 22.2765V22.2852Z" fill="#40BF82"/>
<path d="M50.552 32.6177V11.9656H59.7135C60.6427 11.9656 61.511 12.16 62.315 12.5489C63.1189 12.9379 63.819 13.4608 64.4107 14.1176C65.003 14.7788 65.4567 15.5134 65.7762 16.3302C66.0962 17.1426 66.256 17.9767 66.256 18.8323C66.256 19.6879 66.1047 20.5393 65.8065 21.3344C65.504 22.1296 65.0762 22.834 64.5105 23.4433C63.9485 24.0526 63.2872 24.5236 62.531 24.8521L67.2415 32.6177H62.8207L58.5725 25.6947H54.5582V32.6177H50.5435H50.552ZM54.5667 22.1771H59.5967C60.1025 22.1771 60.5477 22.0258 60.9362 21.7277C61.3252 21.4252 61.6367 21.0233 61.8655 20.522C62.099 20.0164 62.2157 19.4546 62.2157 18.8366C62.2157 18.2187 62.0815 17.6266 61.8092 17.121C61.537 16.6154 61.2 16.2178 60.7897 15.9283C60.3832 15.6388 59.938 15.4918 59.4497 15.4918H54.5625V22.1814L54.5667 22.1771Z" fill="#2A13AE"/>
<path d="M74.1989 32.9073C72.9757 32.9073 71.8739 32.6999 70.8842 32.2894C69.8945 31.8788 69.0522 31.3127 68.3517 30.591C67.6517 29.8737 67.1204 29.0526 66.7532 28.1321C66.3855 27.2117 66.1997 26.2221 66.1997 25.1676C66.1997 23.7502 66.5239 22.4408 67.172 21.2395C67.8204 20.0424 68.7407 19.0831 69.9337 18.3614C71.1262 17.644 72.5565 17.281 74.2249 17.281C75.8929 17.281 77.2887 17.6397 78.4727 18.3614C79.6567 19.0831 80.5685 20.0251 81.208 21.2006C81.8479 22.3717 82.1674 23.6508 82.1674 25.0337C82.1674 25.2843 82.1589 25.5177 82.1372 25.7381C82.1202 25.9585 82.0984 26.1443 82.081 26.2999H70.3312C70.3874 27.095 70.6077 27.7735 70.9835 28.3309C71.3639 28.8884 71.8479 29.3205 72.4402 29.623C73.0319 29.9255 73.6587 30.0768 74.3157 30.0768C75.1107 30.0768 75.8537 29.8866 76.541 29.5107C77.2282 29.1347 77.699 28.6248 77.9499 27.9852L81.2642 28.9143C80.9144 29.6879 80.4002 30.3793 79.7215 30.98C79.0432 31.5806 78.2392 32.0517 77.3057 32.3887C76.3769 32.7258 75.3395 32.8987 74.1947 32.8987L74.1989 32.9073ZM70.2144 23.8626H78.183C78.1054 23.1063 77.8894 22.4451 77.5307 21.8877C77.1719 21.3302 76.7007 20.8937 76.1217 20.5783C75.5384 20.2671 74.8904 20.1116 74.1729 20.1116C73.4554 20.1116 72.8419 20.2671 72.2672 20.5783C71.6967 20.8894 71.2302 21.3259 70.8714 21.8877C70.5127 22.4451 70.2924 23.1063 70.2187 23.8626H70.2144Z" fill="#2A13AE"/>
<path d="M96.6832 32.9073C95.4992 32.9073 94.5657 32.5875 93.8742 31.9436C93.1874 31.304 92.8415 30.4829 92.8415 29.4933V17.5878C92.8415 16.9871 92.7724 16.447 92.6382 15.9673C92.5045 15.4919 92.2582 15.1116 91.9122 14.8307C91.5624 14.5498 91.061 14.4072 90.3997 14.4072C89.7777 14.4072 89.2805 14.5412 88.9005 14.8135C88.52 15.0857 88.252 15.4617 88.088 15.9457C87.9239 16.4297 87.8285 17.0044 87.8115 17.6613V18.1539H90.3439V21.1487H87.8115V32.6091H83.9135V21.1487H81.9084V18.1539H83.9135V16.905C83.9135 15.6432 84.164 14.5844 84.6697 13.7201C85.1754 12.8558 85.9014 12.2033 86.852 11.7582C87.8029 11.3131 88.9477 11.0884 90.2834 11.0884C92.4959 11.0884 94.1205 11.6113 95.1707 12.6571C96.2167 13.7028 96.7395 15.0814 96.7395 16.7883V27.6092C96.7395 28.2488 96.8477 28.6982 97.0594 28.9618C97.2712 29.2254 97.5737 29.3551 97.9622 29.3551C98.3299 29.3551 98.7057 29.2989 99.0815 29.1822C99.462 29.0655 99.7167 28.9791 99.851 28.9186L100.374 32.1337C100.218 32.1942 99.9374 32.285 99.531 32.4146C99.125 32.5443 98.6669 32.6566 98.1655 32.756C97.6597 32.8554 97.1672 32.9029 96.6832 32.9029V32.9073Z" fill="#2A13AE"/>
<path d="M107.707 32.9073C106.484 32.9073 105.382 32.6999 104.393 32.2894C103.403 31.8788 102.56 31.3127 101.86 30.591C101.16 29.8737 100.629 29.0526 100.261 28.1321C99.894 27.2117 99.7083 26.2221 99.7083 25.1676C99.7083 23.7502 100.032 22.4408 100.681 21.2395C101.329 20.0424 102.249 19.0831 103.442 18.3614C104.635 17.644 106.065 17.281 107.733 17.281C109.401 17.281 110.797 17.6397 111.981 18.3614C113.165 19.0831 114.077 20.0251 114.717 21.2006C115.356 22.3717 115.676 23.6508 115.676 25.0337C115.676 25.2843 115.667 25.5177 115.646 25.7381C115.628 25.9585 115.607 26.1443 115.589 26.2999H103.84C103.896 27.095 104.116 27.7735 104.492 28.3309C104.872 28.8884 105.356 29.3205 105.948 29.623C106.54 29.9255 107.167 30.0768 107.824 30.0768C108.619 30.0768 109.362 29.8866 110.049 29.5107C110.737 29.1304 111.208 28.6248 111.458 27.9852L114.773 28.9143C114.423 29.6879 113.909 30.3793 113.23 30.98C112.552 31.5806 111.748 32.0517 110.814 32.3887C109.885 32.7258 108.848 32.8987 107.703 32.8987L107.707 32.9073ZM103.723 23.8626H111.692C111.614 23.1063 111.398 22.4451 111.039 21.8877C110.68 21.3302 110.209 20.8937 109.63 20.5783C109.047 20.2671 108.399 20.1116 107.681 20.1116C106.964 20.1116 106.346 20.2671 105.776 20.5783C105.205 20.8894 104.738 21.3259 104.38 21.8877C104.021 22.4451 103.805 23.1063 103.727 23.8626H103.723Z" fill="#2A13AE"/>
<path d="M124.691 32.9074C123.429 32.9074 122.309 32.7 121.333 32.2895C120.352 31.8789 119.514 31.2999 118.818 30.5652C118.118 29.8263 117.586 28.9879 117.219 28.0501C116.852 27.1124 116.666 26.1228 116.666 25.0856C116.666 23.6855 116.985 22.3934 117.625 21.2007C118.265 20.0123 119.185 19.0616 120.387 18.3529C121.588 17.6441 123.014 17.2898 124.66 17.2898C126.307 17.2898 127.724 17.6485 128.908 18.3658C130.093 19.0832 130.961 20.0253 131.527 21.1877L127.746 22.3502C127.417 21.7884 126.981 21.3563 126.437 21.0538C125.892 20.7513 125.283 20.6043 124.604 20.6043C123.887 20.6043 123.226 20.7901 122.625 21.1618C122.024 21.5334 121.545 22.052 121.186 22.7175C120.827 23.383 120.646 24.1738 120.646 25.0856C120.646 25.9975 120.823 26.7408 121.186 27.4235C121.545 28.1063 122.024 28.6422 122.625 29.0225C123.226 29.4028 123.896 29.5929 124.63 29.5929C125.114 29.5929 125.559 29.5151 125.97 29.3595C126.376 29.204 126.752 28.9879 127.089 28.707C127.426 28.4261 127.677 28.1193 127.832 27.7909L131.614 28.9533C131.263 29.7096 130.753 30.388 130.088 30.9887C129.418 31.5894 128.632 32.0604 127.733 32.3975C126.83 32.7346 125.818 32.9074 124.695 32.9074H124.691Z" fill="#2A13AE"/>
<path d="M142.257 31.8614C141.907 32.017 141.505 32.1769 141.051 32.3411C140.598 32.5053 140.101 32.6436 139.569 32.7473C139.038 32.8554 138.497 32.9072 137.953 32.9072C137.214 32.9072 136.549 32.7819 135.948 32.5313C135.347 32.2806 134.867 31.883 134.509 31.3342C134.15 30.7854 133.969 30.0724 133.969 29.1865V20.4831H131.989V17.5143H133.969V12.5706H137.897V17.5143H141.095V20.4831H137.897V27.8598C137.914 28.3784 138.061 28.7543 138.333 28.992C138.605 29.2297 138.956 29.3507 139.379 29.3507C139.768 29.3507 140.153 29.2772 140.541 29.1346C140.93 28.9877 141.25 28.858 141.501 28.7414L142.257 31.8528V31.8614Z" fill="#2A13AE"/>
</g>
</g>
<defs>
<clipPath id="clip0_61_396">
<rect width="142.27" height="30.25" fill="white" transform="translate(0 6.875)"/>
</clipPath>
</defs>
</svg>
