<svg width="24" height="18" viewBox="0 0 24 18" fill="currentColor" xmlns="http://www.w3.org/2000/svg">
<path d="M19.6695 2.01848C19.6634 2.00661 19.6532 1.9973 19.6409 1.99223C18.2112 1.33631 16.7026 0.868579 15.1526 0.600757C15.1386 0.598139 15.124 0.600027 15.1111 0.606154C15.0981 0.61228 15.0874 0.622333 15.0805 0.634882C14.8751 1.00774 14.6886 1.39073 14.5218 1.78238C12.851 1.52876 11.1516 1.52876 9.4808 1.78238C9.31287 1.38973 9.12339 1.00665 8.91324 0.634882C8.90603 0.622605 8.8953 0.612785 8.88243 0.606698C8.86956 0.600611 8.85515 0.598541 8.84109 0.600757C7.29098 0.868017 5.78223 1.33578 4.35279 1.99227C4.34056 1.99746 4.33023 2.00631 4.32324 2.01762C1.46465 6.28654 0.681579 10.4505 1.06573 14.5629C1.06681 14.573 1.06991 14.5827 1.07483 14.5916C1.07976 14.6005 1.08642 14.6082 1.09442 14.6145C2.75895 15.8469 4.62074 16.7877 6.60035 17.3966C6.6143 17.4007 6.62918 17.4005 6.64301 17.396C6.65684 17.3915 6.66895 17.3828 6.67772 17.3712C7.10289 16.7927 7.47963 16.1801 7.8041 15.5396C7.80856 15.5308 7.81111 15.5212 7.81157 15.5114C7.81204 15.5015 7.81041 15.4917 7.8068 15.4825C7.80319 15.4734 7.79768 15.4651 7.79063 15.4582C7.78358 15.4513 7.77515 15.446 7.76589 15.4426C7.1718 15.2153 6.59665 14.9412 6.04584 14.6231C6.03584 14.6172 6.02743 14.609 6.02137 14.5991C6.01532 14.5892 6.01179 14.5779 6.0111 14.5663C6.01042 14.5547 6.01259 14.5432 6.01744 14.5326C6.02229 14.5221 6.02966 14.5129 6.0389 14.5059C6.15481 14.4193 6.2687 14.3301 6.38049 14.2382C6.3903 14.2302 6.40216 14.225 6.41475 14.2233C6.42734 14.2216 6.44015 14.2234 6.45174 14.2286C10.0603 15.8755 13.9671 15.8755 17.533 14.2286C17.5446 14.2231 17.5576 14.221 17.5703 14.2225C17.5831 14.2241 17.5952 14.2292 17.6051 14.2374C17.7171 14.3297 17.8312 14.4192 17.9476 14.5059C17.9569 14.5128 17.9643 14.5219 17.9692 14.5325C17.9742 14.543 17.9764 14.5545 17.9758 14.5661C17.9752 14.5777 17.9718 14.5889 17.9658 14.5989C17.9598 14.6088 17.9515 14.6171 17.9415 14.6231C17.392 14.9439 16.8163 15.2178 16.2206 15.4417C16.2114 15.4452 16.203 15.4507 16.196 15.4577C16.189 15.4647 16.1835 15.473 16.18 15.4823C16.1764 15.4915 16.1749 15.5014 16.1754 15.5113C16.176 15.5212 16.1786 15.5308 16.1831 15.5396C16.513 16.1765 16.8892 16.7884 17.3087 17.3702C17.3172 17.3821 17.3292 17.3911 17.3431 17.3958C17.357 17.4005 17.372 17.4007 17.386 17.3964C19.3692 16.7896 21.2342 15.8488 22.9009 14.6145C22.909 14.6085 22.9157 14.601 22.9207 14.5922C22.9256 14.5835 22.9286 14.5738 22.9295 14.5638C23.3894 9.80941 22.1596 5.67957 19.6695 2.01848ZM8.34302 12.0589C7.25657 12.0589 6.36137 11.0619 6.36137 9.83742C6.36137 8.61297 7.2392 7.61588 8.34302 7.61588C9.45545 7.61588 10.342 8.62163 10.3246 9.83734C10.3246 11.0619 9.44675 12.0589 8.34302 12.0589ZM15.6698 12.0589C14.5834 12.0589 13.6882 11.0619 13.6882 9.83742C13.6882 8.61297 14.566 7.61588 15.6698 7.61588C16.7823 7.61588 17.6688 8.62163 17.6514 9.83734C17.6514 11.0619 16.7823 12.0589 15.6698 12.0589Z" fill="#currentColor"/>
</svg>
