<svg width="14" height="14" viewBox="0 0 14 14" fill="currentColor" xmlns="http://www.w3.org/2000/svg">
<path d="M11.4742 2.92777C11.4706 2.92085 11.4647 2.91542 11.4575 2.91246C10.6236 2.52984 9.7435 2.257 8.83937 2.10077C8.83115 2.09924 8.82267 2.10034 8.81511 2.10392C8.80756 2.10749 8.80133 2.11335 8.7973 2.12067C8.67747 2.33817 8.56868 2.56158 8.47136 2.79005C7.49676 2.6421 6.5054 2.6421 5.5308 2.79005C5.43283 2.561 5.32231 2.33754 5.19972 2.12067C5.19551 2.11351 5.18925 2.10778 5.18174 2.10423C5.17423 2.10068 5.16583 2.09947 5.15763 2.10077C4.2534 2.25667 3.37329 2.52953 2.53945 2.91248C2.53232 2.91551 2.52629 2.92068 2.52222 2.92727C0.854707 5.41748 0.397913 7.84645 0.622001 10.2454C0.622631 10.2512 0.624438 10.2569 0.627312 10.2621C0.630187 10.2673 0.634072 10.2718 0.638735 10.2754C1.60971 10.9944 2.69576 11.5431 3.85053 11.8983C3.85866 11.9008 3.86735 11.9006 3.87542 11.898C3.88348 11.8954 3.89055 11.8903 3.89566 11.8835C4.14368 11.5461 4.36345 11.1887 4.55272 10.8151C4.55532 10.81 4.55681 10.8044 4.55708 10.7986C4.55735 10.7929 4.5564 10.7871 4.55429 10.7818C4.55219 10.7764 4.54897 10.7716 4.54486 10.7676C4.54075 10.7636 4.53583 10.7605 4.53043 10.7585C4.18388 10.6259 3.84837 10.4661 3.52707 10.2805C3.52123 10.277 3.51633 10.2722 3.51279 10.2664C3.50926 10.2607 3.5072 10.2541 3.5068 10.2474C3.5064 10.2406 3.50767 10.2338 3.5105 10.2277C3.51333 10.2215 3.51763 10.2162 3.52302 10.2121C3.59063 10.1616 3.65707 10.1095 3.72228 10.056C3.728 10.0513 3.73492 10.0482 3.74226 10.0472C3.74961 10.0463 3.75708 10.0473 3.76384 10.0504C5.86885 11.011 8.14781 11.011 10.2279 10.0504C10.2347 10.0471 10.2422 10.0459 10.2497 10.0468C10.2571 10.0477 10.2642 10.0507 10.27 10.0555C10.3353 10.1093 10.4019 10.1615 10.4698 10.2121C10.4752 10.2161 10.4795 10.2215 10.4824 10.2276C10.4853 10.2337 10.4866 10.2405 10.4862 10.2472C10.4859 10.254 10.4839 10.2605 10.4804 10.2663C10.4769 10.2721 10.472 10.277 10.4662 10.2805C10.1456 10.4676 9.80983 10.6274 9.46237 10.758C9.45697 10.76 9.45207 10.7632 9.44798 10.7673C9.4439 10.7714 9.44072 10.7763 9.43865 10.7817C9.43659 10.7871 9.43568 10.7928 9.436 10.7986C9.43632 10.8043 9.43785 10.81 9.44049 10.8151C9.63294 11.1866 9.85238 11.5435 10.097 11.8829C10.102 11.8899 10.109 11.8951 10.1171 11.8979C10.1252 11.9006 10.134 11.9008 10.1422 11.8983C11.299 11.5443 12.387 10.9955 13.3592 10.2754C13.3639 10.272 13.3678 10.2676 13.3707 10.2625C13.3736 10.2574 13.3754 10.2517 13.3759 10.2459C13.6442 7.47248 12.9268 5.06341 11.4742 2.92777ZM4.86709 8.78467C4.23332 8.78467 3.71112 8.20308 3.71112 7.48882C3.71112 6.77456 4.2232 6.19292 4.86709 6.19292C5.51601 6.19292 6.03315 6.77961 6.02303 7.48878C6.02303 8.20308 5.51093 8.78467 4.86709 8.78467ZM9.14102 8.78467C8.50728 8.78467 7.98508 8.20308 7.98508 7.48882C7.98508 6.77456 8.49716 6.19292 9.14102 6.19292C9.78999 6.19292 10.3071 6.77961 10.297 7.48878C10.297 8.20308 9.78999 8.78467 9.14102 8.78467Z" fill="currentColor"/>
</svg>
