<svg width="14" height="14" viewBox="0 0 14 14" fill="currentColor" xmlns="http://www.w3.org/2000/svg">
<path d="M1.54 4.04013C1.55613 3.8864 1.49431 3.73267 1.37606 3.62845L0.163945 2.21105V2H3.93198L6.84536 8.19333L9.40666 2H13V2.21105L11.9626 3.17509C11.8739 3.24023 11.8282 3.34966 11.847 3.45649V10.5435C11.8282 10.6503 11.8739 10.7598 11.9626 10.8249L12.9758 11.789V12H7.8774V11.789L8.92826 10.8015C9.03039 10.7024 9.03039 10.6712 9.03039 10.5201V4.79312L6.10895 11.9818H5.71387L2.31673 4.79312V9.61074C2.28716 9.81397 2.35704 10.0172 2.50486 10.1631L3.87017 11.7681V11.9792H0V11.7707L1.36531 10.1631C1.51044 10.0172 1.57763 9.81136 1.54 9.61074V4.04013Z" fill="currentColor"/>
</svg>
