<svg width="22" height="18" viewBox="0 0 22 18" fill="currentColor" xmlns="http://www.w3.org/2000/svg">
<path d="M22 2.13817C21.191 2.48965 20.3105 2.7426 19.4037 2.84112C20.3396 2.27929 21.0508 1.3926 21.3866 0.338166C20.5221 0.857396 19.5438 1.23817 18.5259 1.43521C17.701 0.548521 16.5297 0 15.2316 0C12.7331 0 10.7237 2.03965 10.7237 4.5426C10.7237 4.89408 10.766 5.24556 10.8348 5.58373C7.09362 5.38669 3.757 3.58669 1.53876 0.830769C1.14746 1.5071 0.925369 2.27929 0.925369 3.12337C0.925369 4.6997 1.72119 6.08964 2.93474 6.9071C2.19445 6.87781 1.49645 6.66746 0.896287 6.32929V6.38521C0.896287 8.5926 2.44562 10.4219 4.51052 10.8426C4.13244 10.9411 3.72792 10.997 3.3234 10.997C3.02992 10.997 2.75231 10.9678 2.47206 10.9278C3.04314 12.7278 4.70616 14.0352 6.68646 14.0778C5.13712 15.3 3.19649 16.0189 1.08929 16.0189C0.711213 16.0189 0.362216 16.0056 0 15.963C1.9988 17.2544 4.37039 18 6.92441 18C15.2157 18 19.7527 11.0822 19.7527 5.07781C19.7527 4.88077 19.7527 4.68373 19.7395 4.48669C20.6172 3.83965 21.3866 3.03817 22 2.13817Z" fill="currentColor"/>
</svg>
