<svg width="14" height="14" viewBox="0 0 14 14" fill="none" xmlns="http://www.w3.org/2000/svg">
<path d="M11.4741 2.92777C11.4705 2.92085 11.4646 2.91542 11.4574 2.91246C10.6234 2.52984 9.74338 2.257 8.83924 2.10077C8.83103 2.09924 8.82254 2.10034 8.81499 2.10392C8.80744 2.10749 8.80121 2.11335 8.79718 2.12067C8.67734 2.33817 8.56856 2.56158 8.47124 2.79005C7.49663 2.6421 6.50528 2.6421 5.53067 2.79005C5.43271 2.561 5.32218 2.33754 5.1996 2.12067C5.19539 2.11351 5.18913 2.10778 5.18162 2.10423C5.17411 2.10068 5.16571 2.09947 5.15751 2.10077C4.25328 2.25667 3.37317 2.52953 2.53933 2.91248C2.53219 2.91551 2.52617 2.92068 2.52209 2.92727C0.854585 5.41748 0.397791 7.84645 0.621879 10.2454C0.622509 10.2512 0.624316 10.2569 0.62719 10.2621C0.630065 10.2673 0.63395 10.2718 0.638613 10.2754C1.60959 10.9944 2.69564 11.5431 3.85041 11.8983C3.85854 11.9008 3.86723 11.9006 3.87529 11.898C3.88336 11.8954 3.89043 11.8903 3.89554 11.8835C4.14356 11.5461 4.36332 11.1887 4.5526 10.8151C4.5552 10.81 4.55668 10.8044 4.55696 10.7986C4.55723 10.7929 4.55628 10.7871 4.55417 10.7818C4.55207 10.7764 4.54885 10.7716 4.54474 10.7676C4.54062 10.7636 4.53571 10.7605 4.53031 10.7585C4.18375 10.6259 3.84825 10.4661 3.52694 10.2805C3.52111 10.277 3.51621 10.2722 3.51267 10.2664C3.50914 10.2607 3.50708 10.2541 3.50668 10.2474C3.50628 10.2406 3.50755 10.2338 3.51038 10.2277C3.51321 10.2215 3.51751 10.2162 3.5229 10.2121C3.59051 10.1616 3.65695 10.1095 3.72216 10.056C3.72788 10.0513 3.7348 10.0482 3.74214 10.0472C3.74948 10.0463 3.75696 10.0473 3.76372 10.0504C5.86873 11.011 8.14769 11.011 10.2278 10.0504C10.2346 10.0471 10.2421 10.0459 10.2496 10.0468C10.257 10.0477 10.2641 10.0507 10.2699 10.0555C10.3352 10.1093 10.4018 10.1615 10.4696 10.2121C10.4751 10.2161 10.4794 10.2215 10.4823 10.2276C10.4851 10.2337 10.4865 10.2405 10.4861 10.2472C10.4858 10.254 10.4837 10.2605 10.4803 10.2663C10.4768 10.2721 10.4719 10.277 10.4661 10.2805C10.1455 10.4676 9.80971 10.6274 9.46225 10.758C9.45685 10.76 9.45195 10.7632 9.44786 10.7673C9.44378 10.7714 9.4406 10.7763 9.43853 10.7817C9.43647 10.7871 9.43556 10.7928 9.43588 10.7986C9.4362 10.8043 9.43773 10.81 9.44037 10.8151C9.63281 11.1866 9.85225 11.5435 10.0969 11.8829C10.1019 11.8899 10.1089 11.8951 10.117 11.8979C10.1251 11.9006 10.1339 11.9008 10.1421 11.8983C11.2989 11.5443 12.3868 10.9955 13.359 10.2754C13.3638 10.272 13.3677 10.2676 13.3706 10.2625C13.3735 10.2574 13.3752 10.2517 13.3758 10.2459C13.644 7.47248 12.9266 5.06341 11.4741 2.92777ZM4.86696 8.78467C4.2332 8.78467 3.711 8.20308 3.711 7.48882C3.711 6.77456 4.22307 6.19292 4.86696 6.19292C5.51589 6.19292 6.03303 6.77961 6.0229 7.48878C6.0229 8.20308 5.51081 8.78467 4.86696 8.78467ZM9.1409 8.78467C8.50716 8.78467 7.98496 8.20308 7.98496 7.48882C7.98496 6.77456 8.49703 6.19292 9.1409 6.19292C9.78987 6.19292 10.307 6.77961 10.2969 7.48878C10.2969 8.20308 9.78987 8.78467 9.1409 8.78467Z" fill="#666666"/>
</svg>
