<svg width="24" height="24" viewBox="0 0 24 24" fill="none" xmlns="http://www.w3.org/2000/svg">
<line x1="8" y1="7" x2="11" y2="7" stroke="black" stroke-width="2" stroke-linecap="round"/>
<path fill-rule="evenodd" clip-rule="evenodd" d="M5 2C3.89543 2 3 2.89543 3 4V19.8472C3 20.9518 3.89543 21.8472 5 21.8472H9.58081C8.9552 21.2708 8.42173 20.596 8.00499 19.8472H5V4L13.625 4H17.0277L17 7.95055V7.95756V8.21425C17.7095 8.39688 18.381 8.6744 19 9.03248V7.96102L19.0276 4.01401C19.0354 2.90399 18.1377 2 17.0277 2H13.625H5Z" fill="black"/>
<circle cx="15" cy="15.9622" r="6" stroke="black" stroke-width="2"/>
<rect x="13.1213" y="17.6057" width="6.34187" height="2" rx="1" transform="rotate(-45 13.1213 17.6057)" fill="black"/>
<rect x="14.5356" y="19.02" width="5" height="2" rx="1" transform="rotate(-135 14.5356 19.02)" fill="black"/>
</svg>
