<svg width="14" height="14" viewBox="0 0 14 14" fill="none" xmlns="http://www.w3.org/2000/svg">
<path d="M13.4166 2.99726C12.9447 3.20229 12.4311 3.34985 11.9021 3.40732C12.4481 3.07959 12.863 2.56235 13.0588 1.94726C12.5545 2.25015 11.9839 2.47226 11.3901 2.5872C10.9089 2.06997 10.2257 1.75 9.4684 1.75C8.01095 1.75 6.83881 2.93979 6.83881 4.39985C6.83881 4.60488 6.86349 4.80991 6.90359 5.00717C4.72126 4.89223 2.7749 3.84223 1.48092 2.23462C1.25266 2.62914 1.12311 3.07959 1.12311 3.57197C1.12311 4.49149 1.58734 5.30229 2.29525 5.77914C1.86341 5.76206 1.45625 5.63935 1.10615 5.44209V5.4747C1.10615 6.76235 2.00992 7.82944 3.21445 8.07485C2.9939 8.13232 2.75793 8.16494 2.52196 8.16494C2.35077 8.16494 2.18883 8.14786 2.02535 8.12456C2.35848 9.17456 3.32858 9.93721 4.48375 9.96206C3.57997 10.675 2.44793 11.0944 1.21873 11.0944C0.998187 11.0944 0.794606 11.0866 0.583313 11.0618C1.74928 11.8151 3.13271 12.25 4.62255 12.25C9.45915 12.25 12.1057 8.21465 12.1057 4.71206C12.1057 4.59712 12.1057 4.48217 12.098 4.36723C12.61 3.98979 13.0588 3.52226 13.4166 2.99726Z" fill="#666666"/>
</svg>
